# xmcd
#
# Track frame offsets:
#	150
#	19107
#	42687
#	58385
#	80702
#	100012
#	135906
#	141208
#	157525
#	174097
#	194240
#	213588
#	231430
#	245105
#
# Disc length: 3565 seconds
#
# Revision: 1
# Processed by: cddbd v1.5.2PL0 Copyright (c) Steve Scherf et al.
# Submitted via: audiograbber 1.83.01
#
DISCID=c90deb0e
DTITLE=Johnny Sketch and the Dirty Notes - Pain, Pleasure, Fear and Opera
DYEAR=2005
DGENRE=
TTITLE0=Getting By
TTITLE1=Durnt Durnt
TTITLE2=Whats the Matter
TTITLE3=Everybody Got Trouble
TTITLE4=Little Girl
TTITLE5=Sherm
TTITLE6=Mission: Inter
TTITLE7=Hey!
TTITLE8=Right Hand Thunder
TTITLE9=Gretchen
TTITLE10=So Dirty
TTITLE11=Mirando
TTITLE12=Tap
TTITLE13=Mai Tai
EXTD=
EXTT0=
EXTT1=
EXTT2=
EXTT3=
EXTT4=
EXTT5=
EXTT6=
EXTT7=
EXTT8=
EXTT9=
EXTT10=
EXTT11=
EXTT12=
EXTT13=
PLAYORDER=
